<?xml version="1.0" standalone="no"?>
<!DOCTYPE svg PUBLIC "-//W3C//DTD SVG 1.1//EN" "http://www.w3.org/Graphics/SVG/1.1/DTD/svg11.dtd" >
<svg xmlns="http://www.w3.org/2000/svg" xmlns:xlink="http://www.w3.org/1999/xlink" version="1.1">
<metadata></metadata>
<defs>
<font id="osaka-monoregular-mono" horiz-adv-x="1024" vert-adv-y="2048" >
<font-face units-per-em="2048" ascent="1632" descent="-416" />
<missing-glyph horiz-adv-x="500" />
<glyph horiz-adv-x="0" vert-adv-y="0" />
<glyph unicode="&#xd;" horiz-adv-x="680" />
<glyph unicode=" " />
<glyph unicode="!" d="M392 80q0 48 40 88q32 32 80 32q56 0 88 -32t32 -88q0 -48 -32 -80q-40 -40 -88 -40q-40 0 -80 40t-40 80zM400 1296h208l-40 -928h-128z" />
<glyph unicode="&#x22;" d="M224 1344h208l-48 -464h-104zM592 1344h208l-56 -464h-104z" />
<glyph unicode="#" d="M56 352v112h168l88 344h-256v120h288l96 368h120l-96 -368h240l96 368h128l-104 -368h144v-120h-176l-88 -344h264v-112h-296l-96 -352h-128l96 352h-232l-88 -352h-128l96 352h-136zM344 464h232l96 344h-240z" />
<glyph unicode="$" d="M136 72v160q168 -96 344 -104v464q-208 120 -264 200q-72 88 -72 184t88 208q96 96 248 104v136h120v-136q56 0 232 -40v-144q-112 32 -164 44t-68 12v-456q216 -128 272 -200q48 -72 48 -160q0 -128 -80 -208q-80 -96 -240 -120v-144h-120v128q-200 0 -344 72zM312 992 q0 -104 168 -216v384q-88 -24 -128 -64q-40 -64 -40 -104zM600 144q80 40 120 80q32 32 32 104q0 96 -152 200v-384z" />
<glyph unicode="%" d="M0 -40l888 1368h136l-888 -1368h-136zM0 968q0 168 80 248q72 80 184 80t184 -80t72 -248q0 -144 -72 -232t-184 -88t-184 88q-80 80 -80 232zM136 968q0 -112 40 -176q40 -40 88 -40q56 0 80 40q48 64 48 176q0 120 -48 176q-24 48 -80 48q-48 0 -88 -48 q-40 -64 -40 -176zM504 320q0 168 72 248t184 80t192 -80q72 -80 72 -232q0 -168 -80 -248q-88 -88 -184 -88q-104 0 -176 88q-80 80 -80 232zM632 320q0 -96 40 -160q32 -56 88 -56q64 0 96 56q32 32 32 168q0 104 -40 168q-32 48 -88 48t-80 -48q-48 -56 -48 -176z" />
<glyph unicode="&#x26;" d="M0 320q0 216 232 408q-136 184 -136 296q0 128 88 216t224 88q104 0 192 -64q72 -56 72 -168q0 -184 -240 -368l296 -360q24 88 24 248v40h152v-40q0 -224 -80 -376l200 -240h-200l-88 112q-144 -152 -336 -152q-184 0 -288 104q-112 112 -112 256zM152 328 q0 -104 72 -168q72 -72 176 -72q128 0 248 120l-336 416q-160 -136 -160 -296zM248 1056q0 -104 104 -232q184 136 184 256q0 64 -40 104q-32 32 -104 32q-64 0 -104 -40q-40 -64 -40 -120z" />
<glyph unicode="'" d="M368 1344h288l-88 -520h-112z" />
<glyph unicode="(" d="M160 528q0 328 208 584q208 248 528 256v-128q-248 -24 -400 -216q-168 -200 -168 -496q0 -280 168 -488q152 -200 400 -224v-128q-320 24 -528 264q-208 256 -208 576z" />
<glyph unicode=")" d="M128 -184q240 24 408 224q160 208 160 488q0 288 -160 496q-168 192 -408 216v128q320 -8 528 -256q208 -256 208 -584q0 -320 -208 -576q-200 -240 -528 -264v128z" />
<glyph unicode="*" d="M136 816l256 120l-256 128l80 136l232 -160l-16 288h160l-24 -288l240 160l80 -136l-256 -128l256 -120l-80 -136l-240 160l24 -288h-160l16 288l-232 -160z" />
<glyph unicode="+" d="M56 384v136h392v384h128v-384h392v-136h-392v-384h-128v384h-392z" />
<glyph unicode="," d="M352 -256q80 8 120 80q40 64 40 144q-72 0 -112 40t-40 104q0 56 40 96t96 40q72 0 128 -56q48 -56 48 -176q0 -136 -88 -248q-104 -120 -232 -128v104z" />
<glyph unicode="-" d="M192 456v136h640v-136h-640z" />
<glyph unicode="." d="M376 96q0 56 40 96t96 40t96 -40t40 -96t-40 -96t-96 -40t-96 40t-40 96z" />
<glyph unicode="/" d="M24 -40l824 1368h152l-824 -1368h-152z" />
<glyph unicode="0" d="M56 648q0 360 144 536q120 144 312 144q200 0 304 -144q152 -176 152 -536q0 -368 -152 -544q-104 -144 -304 -144q-192 0 -312 144q-144 184 -144 544zM224 656q0 -192 32 -288l448 704q-72 128 -192 128q-112 0 -184 -104q-104 -152 -104 -440zM320 208 q72 -120 184 -120q120 0 192 112q104 152 104 456q0 88 -40 264z" />
<glyph unicode="1" d="M160 0v128h312v1000q-184 -128 -312 -176v144q184 72 312 200h160v-1168h304v-128h-776z" />
<glyph unicode="2" d="M128 0v144q0 96 48 176q48 88 280 320q208 232 232 280q32 56 32 112q0 80 -56 112q-56 56 -160 56q-144 0 -352 -96v144q152 80 384 80q168 0 264 -72q88 -88 88 -208q0 -88 -48 -176q-56 -96 -384 -408q-160 -168 -168 -320h616v-144h-776z" />
<glyph unicode="3" d="M120 24v160q192 -96 328 -96t216 80t80 200q0 112 -88 200q-80 80 -312 80h-88v128h120q152 0 232 72q72 64 72 160q0 88 -56 144q-56 48 -184 48q-136 0 -296 -72v144q120 56 296 56q232 0 312 -80q96 -80 96 -224q0 -192 -216 -304q120 -32 216 -128q64 -88 64 -216 q0 -176 -128 -296t-352 -120q-120 0 -312 64z" />
<glyph unicode="4" d="M40 360v128l552 808h152v-808h240v-128h-240v-360h-152v360h-552zM208 488h384v568z" />
<glyph unicode="5" d="M128 24v168q200 -88 320 -88q136 0 216 80t80 200q0 128 -104 208t-384 80h-96v624h720v-152h-568v-320h24q296 0 440 -120t144 -304q0 -192 -128 -312q-128 -128 -344 -128q-80 0 -320 64z" />
<glyph unicode="6" d="M88 632q0 344 152 520q144 176 376 176q160 0 248 -32v-160q-168 64 -256 64q-152 0 -240 -120q-128 -152 -128 -440v-32q128 200 344 200q176 0 280 -104t104 -288t-120 -320q-136 -136 -312 -136q-192 0 -304 144q-144 184 -144 528zM304 376q0 -128 80 -208 q72 -80 160 -80q104 0 192 88q72 88 72 232q0 112 -64 200q-56 72 -168 72t-192 -80t-80 -224z" />
<glyph unicode="7" d="M136 1136v160h824v-104q0 -120 -176 -344q-256 -344 -304 -456q-48 -104 -48 -280v-112h-168v112q0 136 64 304q64 136 384 552q64 72 96 168h-672z" />
<glyph unicode="8" d="M112 296q0 224 272 400l-32 24q-168 136 -168 296q0 128 104 224q112 88 256 88q160 0 240 -80q88 -88 88 -200q0 -176 -224 -352q200 -160 240 -224q40 -104 40 -168q0 -144 -104 -240q-104 -104 -304 -104q-192 0 -304 96q-104 96 -104 240zM280 296q0 -80 72 -144 q64 -64 168 -64q88 0 176 64q64 64 64 136q0 64 -48 120q-72 88 -216 208q-216 -168 -216 -320zM328 1032q0 -40 40 -104q32 -48 176 -152q176 128 176 264q0 64 -56 112t-144 48q-72 0 -136 -48q-56 -56 -56 -120z" />
<glyph unicode="9" d="M56 872q0 200 128 328q120 128 304 128q192 0 304 -136q144 -176 144 -536q0 -336 -144 -520q-152 -176 -384 -176q-80 0 -256 40v152q176 -64 264 -64q160 0 240 120q120 160 120 448v32q-128 -200 -344 -200q-160 0 -264 104q-112 112 -112 280zM216 880 q0 -128 64 -192q64 -72 168 -72t192 88q80 80 80 208t-72 208q-80 80 -176 80q-104 0 -176 -80q-80 -80 -80 -240z" />
<glyph unicode=":" d="M376 96q0 56 40 96t96 40t96 -40t40 -96t-40 -96t-96 -40t-96 40t-40 96zM376 824q0 56 40 96t96 40t96 -40t40 -96t-40 -96t-96 -40t-96 40t-40 96z" />
<glyph unicode=";" d="M352 -256q80 8 120 80q40 64 40 144q-72 0 -112 40t-40 104q0 56 40 96t96 40q72 0 128 -56q48 -56 48 -176q0 -136 -88 -248q-104 -120 -232 -128v104zM360 824q0 56 40 96t96 40t96 -40t40 -96t-40 -96t-96 -40t-96 40t-40 96z" />
<glyph unicode="&#x3c;" d="M56 456l912 448v-144l-624 -304l624 -312v-144z" />
<glyph unicode="=" d="M56 240v128h912v-128h-912zM56 528v128h912v-128h-912z" />
<glyph unicode="&#x3e;" d="M56 0v144l624 304l-624 312v144l912 -448z" />
<glyph unicode="?" d="M176 1104v152q160 72 320 72q192 0 288 -72q96 -80 96 -200q0 -72 -48 -144q-32 -56 -264 -288q-80 -80 -80 -216v-40h-152v32q0 112 32 168q24 64 176 216q168 184 168 272q0 56 -48 104q-64 40 -168 40q-152 0 -320 -96zM296 80q0 48 40 88q32 32 80 32q56 0 88 -32 t32 -88q0 -48 -32 -80q-40 -40 -88 -40q-40 0 -80 40t-40 80z" />
<glyph unicode="@" d="M0 648q0 336 152 512q144 168 368 168q216 0 360 -152t144 -448q0 -192 -80 -272q-80 -96 -184 -96q-72 0 -112 40q-48 48 -56 120q-64 -160 -200 -160q-72 0 -136 72q-64 88 -64 200q0 176 112 288q88 88 256 88h160v-368q0 -96 8 -104q8 -24 24 -40t32 -16q56 0 88 48 q48 72 48 192q0 248 -112 384q-104 128 -296 128q-160 0 -272 -136q-136 -184 -136 -448q0 -272 120 -432t296 -160q136 0 248 112v-136q-104 -72 -240 -72q-232 0 -376 176q-152 176 -152 512zM328 624q0 -64 24 -104q24 -32 48 -32q80 0 192 184v224h-32q-120 0 -168 -56 q-64 -88 -64 -216z" />
<glyph unicode="A" d="M24 0l400 1296h176l400 -1296h-184l-88 288h-448l-88 -288h-168zM320 416h376l-160 488l-32 128l-32 -128z" />
<glyph unicode="B" d="M144 0v1296h248q280 0 376 -72q88 -88 88 -224q0 -216 -216 -336q136 -56 200 -136q56 -80 56 -192q0 -160 -104 -240q-104 -96 -336 -96h-312zM312 128h160q128 0 192 64t64 152q0 104 -80 176q-88 64 -288 64h-48v-456zM312 712h176q208 88 208 272q0 88 -56 136 q-64 40 -208 40h-120v-448z" />
<glyph unicode="C" d="M96 648q0 320 160 504t392 184q144 0 256 -56v-152q-128 72 -264 72q-144 0 -240 -128q-128 -152 -128 -424q0 -280 128 -432q96 -128 240 -128q136 0 264 80v-152q-112 -56 -256 -56q-232 0 -392 184t-160 504z" />
<glyph unicode="D" d="M128 0v1296h304q272 0 400 -152t128 -504q0 -328 -152 -504q-120 -136 -376 -136h-304zM296 144h112q200 0 296 112q88 112 88 416q0 272 -88 384q-96 104 -280 104h-128v-1016z" />
<glyph unicode="E" d="M168 0v1296h688v-136h-520v-432h464v-136h-464v-448h528v-144h-696z" />
<glyph unicode="F" d="M192 0v1296h704v-136h-536v-432h488v-136h-488v-592h-168z" />
<glyph unicode="G" d="M96 648q0 320 160 504t392 184q144 0 256 -56v-152q-128 72 -264 72q-144 0 -240 -128q-128 -152 -128 -424q0 -296 144 -456q93 -100 253 -100q32 0 67 4v416h-128v128h296v-640q-176 -40 -248 -40q-240 0 -400 184t-160 504z" />
<glyph unicode="H" d="M104 0v1296h168v-560h480v560h168v-1296h-168v608h-480v-608h-168z" />
<glyph unicode="I" d="M144 0v128h280v1032h-280v136h736v-136h-288v-1032h288v-128h-736z" />
<glyph unicode="J" d="M88 32v152q184 -96 304 -96q128 0 184 72q56 56 56 288v712h-296v136h464v-848q0 -272 -104 -376q-112 -112 -296 -112q-152 0 -312 72z" />
<glyph unicode="K" d="M128 0v1296h168v-640l480 640h184l-464 -616l528 -680h-208l-520 656v-656h-168z" />
<glyph unicode="L" d="M184 0v1296h168v-1152h528v-144h-696z" />
<glyph unicode="M" d="M48 0v1296h168l296 -856l304 856h160v-1296h-152v936l-40 -112l-200 -568h-168l-200 568l-32 112h-8l8 -112v-824h-136z" />
<glyph unicode="N" d="M104 0v1296h152l456 -864l56 -128v992h152v-1296h-152l-448 848l-64 136v-984h-152z" />
<glyph unicode="O" d="M56 648q0 360 144 536q120 144 312 144q200 0 304 -144q152 -176 152 -536q0 -368 -152 -544q-104 -144 -304 -144q-192 0 -312 144q-144 184 -144 544zM224 648q0 -320 104 -448q72 -112 184 -112t184 112q96 144 96 448q0 296 -96 440q-72 112 -184 112t-184 -112 q-104 -128 -104 -440z" />
<glyph unicode="P" d="M144 0v1296h328q264 0 368 -96q104 -104 104 -272q0 -192 -136 -328q-128 -128 -424 -128h-72v-472h-168zM312 600h72q192 0 304 88q88 88 88 232q0 128 -72 184q-80 56 -288 56h-104v-560z" />
<glyph unicode="Q" d="M56 664q0 352 152 528q112 136 304 136q200 0 304 -144q152 -176 152 -536q0 -304 -112 -488q-88 -144 -232 -184q120 -208 384 -208h16v-128h-40q-176 0 -288 64q-120 80 -200 256q-208 24 -304 168q-136 208 -136 536zM224 648q0 -320 104 -448q72 -112 184 -112 t184 112q96 144 96 448q0 296 -96 440q-72 112 -184 112t-184 -112q-104 -128 -104 -440z" />
<glyph unicode="R" d="M128 0v1296h344q240 0 320 -80q96 -80 96 -216q0 -256 -256 -392l368 -608h-200l-336 552h-168v-552h-168zM296 680h232q200 104 200 288q0 80 -64 144q-72 48 -248 48h-120v-480z" />
<glyph unicode="S" d="M128 24v160q208 -96 368 -96q104 0 192 64q64 64 64 144t-48 136q-32 56 -336 224q-224 128 -224 328q0 152 104 248q112 96 312 96q96 0 272 -40v-144q-112 56 -280 56q-120 0 -176 -56q-64 -64 -64 -136t48 -120q48 -56 344 -232q216 -128 216 -328q0 -152 -112 -264 q-104 -104 -352 -104q-112 0 -328 64z" />
<glyph unicode="T" d="M40 1152v144h944v-144h-392v-1152h-168v1152h-384z" />
<glyph unicode="U" d="M104 464v832h168v-848q0 -200 64 -288q64 -72 176 -72q128 0 192 88t64 336v784h152v-848q0 -224 -112 -360q-104 -128 -304 -128t-296 112q-104 104 -104 392z" />
<glyph unicode="V" d="M24 1296h184l280 -904l32 -136l32 136l280 904h168l-400 -1296h-168z" />
<glyph unicode="W" d="M24 1296h152l88 -792l16 -128l16 128l136 792h152l160 -824l16 -120l8 120l104 824h128l-152 -1296h-160l-168 880l-16 128h-8l-16 -128l-152 -880h-152z" />
<glyph unicode="X" d="M40 0l376 672l-336 624h184l248 -448l256 448h176l-344 -608l384 -688h-192l-288 512l-288 -512h-176z" />
<glyph unicode="Y" d="M40 1296h192l288 -520l288 520h176l-384 -696v-600h-168v600z" />
<glyph unicode="Z" d="M104 0v144l608 1016h-592v136h792v-136l-616 -1016h624v-144h-816z" />
<glyph unicode="[" d="M296 -312v1680h672v-128h-520v-1424h520v-128h-672z" />
<glyph unicode="\" d="M24 1328h152l824 -1368h-152z" />
<glyph unicode="]" d="M56 -184h520v1424h-520v128h672v-1680h-672v128z" />
<glyph unicode="^" d="M56 384l456 912l456 -912h-144l-312 624l-312 -624h-144z" />
<glyph unicode="_" d="M56 0h912v-128h-912v128z" />
<glyph unicode="`" d="M264 1344h184l248 -272h-144z" />
<glyph unicode="a" d="M88 384q0 248 136 408q128 152 344 152q-24 0 36 -4t140 -12h152v-656q0 -200 32 -272h-160q-8 56 -24 208q-144 -232 -360 -232q-128 0 -208 104q-88 112 -88 304zM256 400q0 -152 56 -208q48 -72 112 -72q168 0 320 272v400q-80 24 -160 24q-136 0 -232 -104t-96 -312z " />
<glyph unicode="b" d="M120 0v1344h152v-624q144 240 352 240q120 0 216 -104q88 -112 88 -304q0 -248 -136 -408q-144 -160 -344 -160q-24 0 -56 8t-120 8h-152zM272 136q159 -13 159 -16h-7q144 0 240 112t96 296q0 144 -48 216q-64 64 -120 64q-168 0 -320 -272v-400z" />
<glyph unicode="c" d="M136 464q0 216 144 360q136 136 328 136q184 0 304 -56v-152q-152 72 -288 72q-144 0 -232 -96q-88 -112 -88 -256q0 -168 104 -272q80 -80 224 -80q136 0 280 56v-152q-152 -48 -296 -48q-208 0 -344 136t-136 352z" />
<glyph unicode="d" d="M96 384q0 256 144 408q128 152 336 152q-24 0 36 -4t140 -12v416h152v-1344h-152v208q-144 -232 -352 -232q-128 0 -208 104q-96 112 -96 304zM264 400q0 -152 56 -208q48 -72 112 -72q168 0 320 272v400q-80 24 -152 24q-144 0 -240 -104t-96 -312z" />
<glyph unicode="e" d="M112 464q0 232 128 360q136 136 312 136q160 0 264 -120q104 -104 104 -368v-32h-648q0 -152 88 -240q88 -96 208 -96q160 0 336 96v-136q-216 -88 -352 -88q-176 0 -312 136q-128 128 -128 352zM288 552h464v24q0 128 -56 184q-64 64 -152 64q-72 0 -160 -64 q-72 -56 -96 -208z" />
<glyph unicode="f" d="M136 728v128h208v40q0 264 104 368t296 104h-4q0 -2 228 -16v-152q-160 40 -216 40q-120 0 -184 -72q-64 -88 -64 -256v-56h368v-128h-368v-728h-160v728h-208z" />
<glyph unicode="g" d="M96 -144q184 -112 352 -112q152 0 232 80q72 72 72 256v128q-144 -232 -352 -232q-128 0 -208 104q-96 112 -96 304q0 256 144 408q128 152 336 152q-24 0 36 -4t140 -12h152v-656q0 -296 -40 -432q-40 -104 -144 -160q-112 -64 -280 -64q-192 0 -344 80v160zM264 400 q0 -152 56 -208q48 -72 112 -72q168 0 320 272v400q-80 24 -152 24q-144 0 -240 -104t-96 -312z" />
<glyph unicode="h" d="M128 0v1344h160v-616q136 232 344 232q128 0 200 -88q72 -80 72 -352v-520h-152v536q0 168 -40 232q-32 48 -96 48q-200 0 -328 -272v-544h-160z" />
<glyph unicode="i" d="M128 800v128h416v-800h264v-128h-416v800h-264zM368 1264q0 48 24 72q32 32 72 32q48 0 80 -32q24 -24 24 -72q0 -40 -24 -64q-40 -40 -80 -40q-32 0 -72 40q-24 24 -24 64z" />
<glyph unicode="j" d="M144 -216q176 -40 216 -40q136 0 192 72q56 56 56 264v720h-392v128h552v-816q0 -280 -96 -384q-104 -120 -312 -120q-104 0 -216 24v152zM584 1264q0 48 24 72q32 32 80 32q40 0 72 -32q32 -24 32 -72q0 -40 -32 -64q-40 -40 -72 -40q-40 0 -80 40q-24 24 -24 64z" />
<glyph unicode="k" d="M168 0v1344h160v-848l448 432h200l-440 -432l456 -496h-216l-448 496v-496h-160z" />
<glyph unicode="l" d="M104 1216v128h432v-1216h288v-128h-448v1216h-272z" />
<glyph unicode="m" d="M56 0v928h136v-208q112 240 232 240q64 0 112 -48q40 -64 40 -160v-48q32 128 120 200q56 56 120 56t112 -56q40 -64 40 -200v-704h-136v632q0 112 -8 120q-16 32 -24 40t-32 8q-32 0 -72 -48q-56 -56 -120 -240v-512h-128v632q0 56 -16 136q-8 32 -56 32q-24 0 -64 -40 q-64 -72 -120 -224v-536h-136z" />
<glyph unicode="n" d="M128 0v928h160v-200q136 232 344 232q128 0 200 -88q72 -80 72 -352v-520h-152v536q0 168 -40 232q-32 48 -96 48q-200 0 -328 -272v-544h-160z" />
<glyph unicode="o" d="M72 464q0 232 128 360q120 136 312 136q184 0 320 -136q120 -128 120 -360q0 -216 -120 -352q-136 -136 -320 -136q-192 0 -312 136q-128 128 -128 352zM240 464q0 -184 80 -264q72 -96 192 -96t200 96q72 88 72 264q0 192 -72 272q-88 88 -200 88q-120 0 -192 -88 q-80 -80 -80 -272z" />
<glyph unicode="p" d="M120 -360v1288h152v-208q144 240 352 240q120 0 216 -104q88 -112 88 -304q0 -248 -136 -408q-144 -160 -344 -160q-24 0 -56 8t-120 8v-360h-152zM272 136q159 -13 159 -16h-7q144 0 240 112t96 296q0 144 -48 216q-64 64 -120 64q-168 0 -320 -272v-400z" />
<glyph unicode="q" d="M96 384q0 256 144 408q128 152 336 152q-24 0 36 -4t140 -12h152v-1288h-152v568q-144 -232 -352 -232q-128 0 -208 104q-96 112 -96 304zM264 400q0 -152 56 -208q48 -72 112 -72q168 0 320 272v400q-80 24 -152 24q-144 0 -240 -104t-96 -312z" />
<glyph unicode="r" d="M208 0v928h152v-200q144 232 376 232q112 0 168 -32v-336h-144v216q-8 8 -64 8q-184 0 -336 -272v-544h-152z" />
<glyph unicode="s" d="M136 48v168q184 -112 376 -112q112 0 176 40q48 40 48 88t-32 80q-40 40 -272 120q-168 64 -216 120q-48 64 -48 144q0 104 88 192q88 72 288 72q152 0 280 -48v-136q-152 48 -288 48q-96 0 -160 -40q-48 -32 -48 -80q0 -40 40 -64q40 -32 264 -120q160 -56 216 -120 q48 -56 48 -152q0 -120 -88 -192q-80 -80 -304 -80q-176 0 -368 72z" />
<glyph unicode="t" d="M80 728v128h232v376h152v-376h416v-128h-416v-376q0 -136 56 -192q48 -56 152 -56q112 0 232 72v-136q-176 -64 -248 -64q-168 0 -256 88t-88 288v376h-232z" />
<glyph unicode="u" d="M120 408v520h152v-536q0 -160 40 -224q40 -48 96 -48q200 0 328 272v536h160v-928h-160v208q-144 -232 -344 -232q-128 0 -200 88t-72 344z" />
<glyph unicode="v" d="M24 928h176l320 -736l320 736h160l-408 -928h-160z" />
<glyph unicode="w" d="M16 928h144l88 -560l24 -136l24 136l144 560h144l168 -560l24 -136l24 136l88 560h120l-152 -928h-144l-176 600l-32 128h-8l-24 -128l-152 -600h-152z" />
<glyph unicode="x" d="M48 0l368 488l-344 440h200l240 -312l232 312h176l-320 -424l384 -504h-200l-280 368l-280 -368h-176z" />
<glyph unicode="y" d="M24 -240q130 -14 130 -16h-2q88 0 176 64t144 232l-432 888h176l336 -696l288 696h160l-360 -864q-128 -296 -224 -368q-112 -88 -264 -88h2q0 2 -130 16v136z" />
<glyph unicode="z" d="M112 0v144l568 656h-552v128h760v-128l-576 -656h592v-144h-792z" />
<glyph unicode="{" d="M176 464v128h72q128 0 184 56q56 48 56 136q0 40 -48 240q-8 16 -8 104q0 128 80 184t280 56h128v-128h-128q-128 0 -160 -32q-48 -32 -48 -88q0 16 40 -208q16 -192 16 -128q0 -160 -184 -256q184 -96 184 -256q0 -96 -32 -216q-24 -88 -24 -112q0 -56 48 -88 q40 -40 160 -40h128v-128h-128q-192 0 -280 64q-80 56 -80 176q0 56 48 288q8 8 8 64q0 88 -56 136t-184 48h-72z" />
<glyph unicode="|" d="M448 -40v1368h128v-1368h-128z" />
<glyph unicode="}" d="M104 -184h128q104 0 168 40q40 40 40 88q0 -48 -40 208q0 48 -8 84l-8 36q0 160 184 256q-184 96 -184 256q0 104 32 224q24 72 24 112q0 48 -40 88q-32 32 -168 32h-128v128h128q208 0 288 -56t80 -184q0 -96 -56 -288q-8 -8 -8 -56q0 -88 64 -136q56 -56 176 -56h72 v-128h-72q-120 0 -184 -48q-56 -48 -56 -144q0 -32 48 -240q16 -144 16 -104q0 -120 -80 -176q-88 -64 -288 -64h-128v128z" />
<glyph unicode="~" d="M48 336v16q0 120 72 200q64 72 168 72q80 0 312 -136q88 -48 152 -48q48 0 80 32q40 64 40 112v8h104v-8q0 -112 -64 -200q-72 -72 -184 -72q-96 0 -296 128q-104 48 -160 48q-48 0 -88 -40t-40 -96v-16h-96z" />
<glyph unicode="&#xa0;" />
<glyph unicode="&#xa2;" horiz-adv-x="2048" d="M520 528q0 264 176 432q184 160 440 136l64 168l120 -40l-56 -168q168 -104 200 -280h-184q-16 104 -64 136l-272 -776q112 -16 128 -16q96 0 152 48q64 56 112 176l144 -64q-56 -152 -176 -232q-104 -72 -216 -72q-96 0 -192 32l-64 -176l-120 40l64 184 q-128 104 -184 200q-72 136 -72 272zM696 536q0 -112 24 -176q32 -80 104 -160l272 760q-168 8 -280 -104q-120 -120 -120 -320z" />
<glyph unicode="&#xa3;" horiz-adv-x="2048" d="M376 184q0 104 72 160q64 64 176 64q96 0 224 -72q0 120 -80 328h-368v136h328q-80 240 -80 328q0 144 120 248q112 96 312 96q184 0 296 -88q104 -80 128 -272h-184q-16 120 -64 160q-56 56 -176 56t-184 -64q-72 -56 -72 -160q0 -112 80 -304h512v-136h-472 q72 -224 72 -288q0 -72 -24 -136q112 -80 160 -88q64 -16 104 -16q144 0 248 192l144 -64q-96 -152 -184 -216t-200 -64q-64 0 -128 24q-32 16 -216 112q-88 -88 -144 -112q-56 -32 -144 -32q-120 0 -184 64q-72 64 -72 144zM520 184q0 -40 32 -64q24 -24 72 -24q40 0 88 24 q40 16 96 80q-104 72 -184 72q-48 0 -72 -24q-32 -32 -32 -64z" />
<glyph unicode="&#xa5;" d="M40 1296h176l304 -536l304 536h160l-392 -696h264v-112h-264v-168h264v-112h-264v-208h-160v208h-272v112h272v168h-272v112h264z" />
<glyph unicode="&#xa7;" horiz-adv-x="2048" d="M616 280h216q16 -104 48 -136q64 -48 144 -48t136 40q40 40 40 80q0 48 -32 80t-184 120q-208 104 -240 128q-56 40 -96 96q-32 56 -32 112q0 64 32 120t128 128q-96 64 -112 104q-32 40 -32 104q0 88 56 152q48 64 112 88q144 40 208 40q192 0 296 -72q88 -56 120 -216 h-216q-8 72 -56 120q-32 32 -136 32q-80 0 -144 -48q-40 -40 -40 -80t24 -64q24 -40 224 -144q232 -120 304 -192q56 -56 56 -128t-40 -136q-24 -56 -120 -112q80 -64 104 -120q16 -64 16 -104q0 -112 -80 -184q-112 -88 -280 -88q-192 0 -312 96q-72 64 -112 232zM808 768 q0 -32 32 -64q40 -32 288 -168q120 48 120 120q0 40 -32 72q-72 72 -304 192q-104 -80 -104 -152z" />
<glyph unicode="&#xa8;" horiz-adv-x="2048" d="M672 1544v104l32 32h112l32 -40v-104l-32 -32h-104zM1192 1536v112l24 32h112l32 -40v-104l-32 -32h-104z" />
<glyph unicode="&#xa9;" d="M0 648q0 328 152 504q144 176 360 176q208 0 344 -160q168 -200 168 -520t-168 -528q-136 -160 -344 -160t-344 160q-168 208 -168 528zM104 648q0 -264 136 -448q112 -136 272 -136q168 0 288 160t120 424q0 280 -120 432t-288 152q-160 0 -280 -152 q-128 -152 -128 -432zM192 648q0 192 104 320q112 120 256 120q120 0 192 -32v-128q-64 32 -184 32q-104 0 -160 -80q-72 -80 -72 -232q0 -160 80 -240q72 -88 176 -88q24 0 160 40v-128q-72 -24 -176 -24q-160 0 -264 128q-112 136 -112 312z" />
<glyph unicode="&#xac;" horiz-adv-x="2048" d="M176 808v144h1680v-648h-144v504h-1536z" />
<glyph unicode="&#xad;" d="M192 456v136h640v-136h-640z" />
<glyph unicode="&#xb0;" horiz-adv-x="2048" d="M232 1320q0 112 80 192q72 80 184 80t192 -80t80 -192t-80 -184q-80 -80 -192 -80t-184 80q-80 80 -80 184zM344 1320q0 -64 48 -104q48 -48 104 -48q72 0 120 48q40 40 40 104t-40 120q-56 40 -120 40t-104 -40q-48 -48 -48 -120z" />
<glyph unicode="&#xb1;" horiz-adv-x="2048" d="M328 24v152h1376v-152h-1376zM328 800v152h616v520h160v-520h608v-152h-608v-520h-160v520h-616z" />
<glyph unicode="&#xb4;" horiz-adv-x="2048" d="M768 1552l408 160h80l24 -104l-56 -40l-424 -112z" />
<glyph unicode="&#xb6;" horiz-adv-x="2048" d="M544 1088q0 152 80 240q104 128 264 128h568v-120h-104v-1344h-136v1344h-232v-1344h-136v736q-112 24 -152 56q-80 56 -112 128q-40 80 -40 176z" />
<glyph unicode="&#xd7;" horiz-adv-x="2048" d="M360 160l560 560l-552 560l96 104l560 -552l560 560l104 -112l-552 -560l552 -560l-104 -112l-560 568l-560 -568z" />
<glyph unicode="&#xf7;" horiz-adv-x="2048" d="M256 640v160h1520v-160h-1520zM864 216q0 64 48 112q56 40 112 40q48 0 104 -40q48 -48 48 -112t-48 -104q-48 -48 -104 -48q-64 0 -112 48q-48 40 -48 104zM864 1224q0 64 48 112t112 48q56 0 104 -48t48 -112t-48 -104q-48 -48 -104 -48q-64 0 -112 48t-48 104z" />
<glyph unicode="&#x2000;" horiz-adv-x="856" vert-adv-y="0" />
<glyph unicode="&#x2001;" horiz-adv-x="1712" vert-adv-y="0" />
<glyph unicode="&#x2002;" horiz-adv-x="856" vert-adv-y="0" />
<glyph unicode="&#x2003;" horiz-adv-x="1712" vert-adv-y="0" />
<glyph unicode="&#x2004;" horiz-adv-x="570" vert-adv-y="0" />
<glyph unicode="&#x2005;" horiz-adv-x="428" vert-adv-y="0" />
<glyph unicode="&#x2006;" horiz-adv-x="285" vert-adv-y="0" />
<glyph unicode="&#x2007;" horiz-adv-x="285" vert-adv-y="0" />
<glyph unicode="&#x2008;" horiz-adv-x="214" vert-adv-y="0" />
<glyph unicode="&#x2009;" horiz-adv-x="342" vert-adv-y="0" />
<glyph unicode="&#x200a;" horiz-adv-x="95" vert-adv-y="0" />
<glyph unicode="&#x2010;" d="M192 456v136h640v-136h-640z" />
<glyph unicode="&#x2011;" d="M192 456v136h640v-136h-640z" />
<glyph unicode="&#x2012;" d="M192 456v136h640v-136h-640z" />
<glyph unicode="&#x2013;" horiz-adv-x="1408" d="M192 456v136h1024v-136h-1024z" />
<glyph unicode="&#x2014;" horiz-adv-x="2048" d="M96 656v144h1840v-144h-1840z" />
<glyph unicode="&#x2018;" horiz-adv-x="2048" d="M1440 1208v176q0 40 32 96q24 56 192 208l56 -56q-72 -88 -184 -232h120l48 -40v-152l-48 -48h-168z" />
<glyph unicode="&#x2019;" horiz-adv-x="2048" d="M336 1216q88 96 168 224h-104l-56 40v160l56 40h160l56 -48v-168q0 -128 -224 -304z" />
<glyph unicode="&#x201c;" horiz-adv-x="2048" d="M1184 1224v152q0 112 208 304l56 -56l-168 -224h104l40 -40v-136l-48 -56h-144zM1632 1224v168q0 80 208 288l56 -48q-112 -144 -168 -224h104l40 -48v-144l-48 -48h-136z" />
<glyph unicode="&#x201d;" horiz-adv-x="2048" d="M160 1240q96 112 168 216h-104l-48 40v136l48 48h144l48 -56v-144q0 -104 -208 -296zM608 1232q96 96 168 224h-88l-48 40v144l32 40h152l48 -56v-144q0 -112 -216 -296z" />
<glyph unicode="&#x2026;" horiz-adv-x="2048" d="M216 640v168l48 40h152l48 -40v-168l-48 -40h-152zM904 640v168l32 32h168l40 -32v-168l-40 -40h-168zM1576 640v168l40 32h168l32 -32v-168l-40 -40h-160z" />
<glyph unicode="&#x202f;" horiz-adv-x="342" vert-adv-y="0" />
<glyph unicode="&#x205f;" horiz-adv-x="428" vert-adv-y="0" />
<glyph unicode="&#x2122;" d="M0 1200v96h480v-96h-184v-552h-112v552h-184zM528 648v648h104l144 -392l144 392h104v-648h-104v400l-96 -280h-104l-104 280v-400h-88z" />
<glyph unicode="&#x25fc;" horiz-adv-x="920" vert-adv-y="1840" d="M0 0v920h920v-920h-920z" />
</font>
</defs>
</svg>
